# This file uses centimeters as units for non-parametric coordinates.

mtllib TrunkBranch4.mtl
g default
v 0.063500 -0.150000 -0.109985
v -0.063500 -0.150000 -0.109985
v -0.127000 -0.150000 -0.000000
v -0.063500 -0.150000 0.109985
v 0.063500 -0.150000 0.109985
v 0.127000 -0.150000 0.000000
v 0.063500 0.150000 -0.109985
v -0.063500 0.150000 -0.109985
v -0.127000 0.150000 -0.000000
v -0.063500 0.150000 0.109985
v 0.063500 0.150000 0.109985
v 0.127000 0.150000 0.000000
v 0.000000 -0.150000 0.000000
v 0.057150 1.052070 -0.039029
v 0.050800 1.905177 -0.203991
v 0.044450 2.738526 -0.203090
v 0.038472 3.388432 -0.081136
v 0.031750 4.029662 0.016523
v 0.025400 4.825190 -0.051581
v 0.019050 5.819985 -0.292668
v 0.012700 6.854416 -0.135583
v -0.057150 1.052070 -0.039029
v -0.050800 1.905177 -0.203991
v -0.044450 2.738526 -0.203090
v -0.039243 3.438815 -0.071534
v -0.031750 4.029662 0.016523
v -0.025400 4.825190 -0.051581
v -0.019050 5.819985 -0.292668
v -0.012700 6.854416 -0.135583
v -0.000000 6.851290 -0.113809
v -0.114300 1.045481 0.059738
v -0.101600 1.922628 -0.117751
v -0.088900 2.739313 -0.126105
v -0.076200 3.389606 -0.014226
v -0.063500 4.022319 0.071023
v -0.050800 4.829465 -0.007795
v -0.038100 5.828085 -0.260682
v -0.025400 6.851290 -0.113809
v -0.057150 1.038892 0.158506
v -0.050800 1.940078 -0.031510
v -0.044450 2.740101 -0.049119
v -0.038100 3.378417 0.050810
v -0.031750 4.014976 0.125523
v -0.025400 4.833740 0.035991
v -0.019050 5.836185 -0.228696
v -0.012700 6.848165 -0.092035
v 0.057150 1.038892 0.158506
v 0.050800 1.940078 -0.031510
v 0.044450 2.740101 -0.049119
v 0.038100 3.378417 0.050810
v 0.031750 4.014976 0.125523
v 0.025400 4.833740 0.035991
v 0.019050 5.836185 -0.228696
v 0.012700 6.848165 -0.092035
v 0.114300 1.045481 0.059739
v 0.101600 1.922628 -0.117751
v 0.088900 2.739313 -0.126105
v 0.075386 3.431787 -0.007439
v 0.063500 4.022319 0.071023
v 0.050800 4.829465 -0.007795
v 0.038100 5.828085 -0.260682
v 0.025400 6.851290 -0.113809
v 0.035280 3.603162 -0.048439
v -0.043119 3.546517 -0.053268
v -0.072390 3.579420 0.011349
v -0.036195 3.569384 0.073224
v 0.036195 3.569384 0.073224
v 0.073185 3.538566 0.011770
v 0.060114 3.419371 -0.116050
v 0.001074 3.456664 -0.101353
v -0.001936 3.540540 -0.086865
v 0.057928 3.585245 -0.091048
v 0.081929 3.451832 -0.056271
v 0.079963 3.535057 -0.041159
v 0.369469 3.676321 -0.482897
v 0.559985 3.974728 -0.705056
v 0.746228 4.277092 -0.922272
v 0.948059 4.605694 -1.157799
v 1.139808 4.984934 -1.381483
v 1.267687 5.482304 -1.530143
v 1.280005 6.116878 -1.543059
v 1.168261 6.715929 -1.410249
v 0.308145 3.696015 -0.467829
v 0.501518 3.975562 -0.687312
v 0.692999 4.273611 -0.904315
v 0.900089 4.598856 -1.139652
v 1.097818 4.971036 -1.363994
v 1.235126 5.455866 -1.517363
v 1.260614 6.081257 -1.539383
v 1.162368 6.678497 -1.416061
v 0.291131 3.762960 -0.434580
v 0.475979 4.022863 -0.645428
v 0.669971 4.313904 -0.866866
v 0.880152 4.633073 -1.107319
v 1.079431 4.996245 -1.334968
v 1.217374 5.467282 -1.490567
v 1.246322 6.080646 -1.518139
v 1.153546 6.672355 -1.402727
v 0.339857 3.810344 -0.419984
v 0.512949 4.071278 -0.624567
v 0.703970 4.359928 -0.850550
v 0.911762 4.676584 -1.096234
v 1.106221 5.038406 -1.326256
v 1.234453 5.509354 -1.478486
v 1.252375 6.120638 -1.501140
v 1.150292 6.708641 -1.382833
v 0.374611 3.688215 -0.418010
v 0.561590 3.969876 -0.644199
v 0.745656 4.268791 -0.866701
v 0.945261 4.594785 -1.107455
v 1.135686 4.968089 -1.337427
v 1.265780 5.454647 -1.496532
v 1.283692 6.081534 -1.523863
v 1.177629 6.679449 -1.405568
v 0.358533 3.754541 -0.384223
v 0.536972 4.016688 -0.601945
v 0.723433 4.308652 -0.828927
v 0.926007 4.628621 -1.074836
v 1.117880 4.992983 -1.308176
v 1.248527 5.465846 -1.469598
v 1.269805 6.080798 -1.502549
v 1.169094 6.673233 -1.392209
vt 0.578125 0.020934
vt 0.421875 0.020934
vt 0.343750 0.156250
vt 0.421875 0.291566
vt 0.578125 0.291566
vt 0.656250 0.156250
vt 0.375000 0.312500
vt 0.416667 0.312500
vt 0.458333 0.312500
vt 0.500000 0.312500
vt 0.541667 0.312500
vt 0.583333 0.312500
vt 0.625000 0.312500
vt 0.375000 0.688440
vt 0.416667 0.688440
vt 0.458333 0.688440
vt 0.500000 0.688440
vt 0.541667 0.688440
vt 0.583333 0.688440
vt 0.625000 0.688440
vt 0.578125 0.708434
vt 0.421875 0.708434
vt 0.343750 0.843750
vt 0.421875 0.979066
vt 0.578125 0.979066
vt 0.656250 0.843750
vt 0.500000 0.150000
vt 0.500000 0.837500
vt 0.578125 0.979066
vt 0.578125 0.979066
vt 0.578125 0.979066
vt 0.578125 0.979066
vt 0.578125 0.979066
vt 0.578125 0.979066
vt 0.578125 0.979066
vt 0.578125 0.979066
vt 0.421875 0.979066
vt 0.421875 0.979066
vt 0.421875 0.979066
vt 0.421875 0.979066
vt 0.421875 0.979066
vt 0.421875 0.979066
vt 0.421875 0.979066
vt 0.421875 0.979066
vt 0.343750 0.843750
vt 0.343750 0.843750
vt 0.343750 0.843750
vt 0.343750 0.843750
vt 0.343750 0.843750
vt 0.343750 0.843750
vt 0.343750 0.843750
vt 0.343750 0.843750
vt 0.421875 0.708434
vt 0.421875 0.708434
vt 0.421875 0.708434
vt 0.421875 0.708434
vt 0.421875 0.708434
vt 0.421875 0.708434
vt 0.421875 0.708434
vt 0.421875 0.708434
vt 0.578125 0.708434
vt 0.578125 0.708434
vt 0.578125 0.708434
vt 0.578125 0.708434
vt 0.578125 0.708434
vt 0.578125 0.708434
vt 0.578125 0.708434
vt 0.578125 0.708434
vt 0.656250 0.843750
vt 0.656250 0.843750
vt 0.656250 0.843750
vt 0.656250 0.843750
vt 0.656250 0.843750
vt 0.656250 0.843750
vt 0.656250 0.843750
vt 0.656250 0.843750
vt 0.578125 0.979066
vt 0.421875 0.979066
vt 0.343750 0.843750
vt 0.421875 0.708434
vt 0.578125 0.708434
vt 0.656250 0.843750
vt 0.578125 0.979066
vt 0.421875 0.979066
vt 0.421875 0.979066
vt 0.578125 0.979066
vt 0.656250 0.843750
vt 0.656250 0.843750
vt 0.578125 0.979066
vt 0.578125 0.979066
vt 0.578125 0.979066
vt 0.578125 0.979066
vt 0.578125 0.979066
vt 0.578125 0.979066
vt 0.578125 0.979066
vt 0.578125 0.979066
vt 0.421875 0.979066
vt 0.421875 0.979066
vt 0.421875 0.979066
vt 0.421875 0.979066
vt 0.421875 0.979066
vt 0.421875 0.979066
vt 0.421875 0.979066
vt 0.421875 0.979066
vt 0.421875 0.979066
vt 0.421875 0.979066
vt 0.421875 0.979066
vt 0.421875 0.979066
vt 0.421875 0.979066
vt 0.421875 0.979066
vt 0.421875 0.979066
vt 0.421875 0.979066
vt 0.578125 0.979066
vt 0.578125 0.979066
vt 0.578125 0.979066
vt 0.578125 0.979066
vt 0.578125 0.979066
vt 0.578125 0.979066
vt 0.578125 0.979066
vt 0.578125 0.979066
vt 0.656250 0.843750
vt 0.656250 0.843750
vt 0.656250 0.843750
vt 0.656250 0.843750
vt 0.656250 0.843750
vt 0.656250 0.843750
vt 0.656250 0.843750
vt 0.656250 0.843750
vt 0.656250 0.843750
vt 0.656250 0.843750
vt 0.656250 0.843750
vt 0.656250 0.843750
vt 0.656250 0.843750
vt 0.656250 0.843750
vt 0.656250 0.843750
vt 0.656250 0.843750
vn 0.000000 0.000000 -1.000000
vn 0.000000 0.000000 -1.000000
vn 0.000000 0.058097 -0.998311
vn 0.000000 0.058097 -0.998311
vn -0.866025 0.000000 -0.500000
vn -0.866025 0.000000 -0.500000
vn -0.865821 0.033922 -0.499204
vn -0.865834 0.033278 -0.499224
vn -0.866026 0.000000 0.500000
vn -0.866026 0.000000 0.500000
vn -0.865964 -0.015701 0.499860
vn -0.865967 -0.015400 0.499864
vn 0.000000 0.000000 1.000000
vn 0.000000 0.000000 1.000000
vn 0.000000 -0.040196 0.999192
vn 0.000000 -0.040196 0.999192
vn 0.866025 0.000000 0.500000
vn 0.866025 0.000000 0.500000
vn 0.865967 -0.015400 0.499864
vn 0.865964 -0.015701 0.499861
vn 0.866026 0.000000 -0.500000
vn 0.866026 0.000000 -0.500000
vn 0.865834 0.033278 -0.499224
vn 0.865821 0.033922 -0.499203
vn 0.000000 -1.000000 0.000000
vn 0.000000 -1.000000 -0.000000
vn 0.000000 -1.000000 0.000000
vn 0.000000 -1.000000 0.000000
vn 0.000000 -1.000000 0.000000
vn 0.000000 -1.000000 0.000000
vn 0.000000 -1.000000 -0.000000
vn 0.000000 0.989853 0.142098
vn 0.000000 0.989853 0.142098
vn 0.000000 0.989855 0.142084
vn 0.000000 0.989856 0.142071
vn 0.000000 0.989851 0.142111
vn 0.000000 0.989855 0.142084
vn 0.000000 0.989860 0.142045
vn 0.000000 -0.045358 -0.998971
vn 0.000000 -0.045358 -0.998971
vn 0.000000 -0.103258 -0.994655
vn 0.000000 -0.103258 -0.994655
vn -0.000349 0.077821 -0.996967
vn -0.000349 0.077772 -0.996971
vn -0.093124 0.143124 -0.985314
vn -0.023095 0.154208 -0.987768
vn -0.065869 0.195592 -0.978471
vn -0.177097 0.201940 -0.963253
vn -0.010554 0.012444 -0.999867
vn -0.010496 0.011903 -0.999874
vn 0.000000 -0.160432 -0.987047
vn 0.000000 -0.160432 -0.987047
vn 0.000000 -0.074883 -0.997192
vn 0.000000 -0.074883 -0.997192
vn 0.000000 0.150136 -0.988665
vn 0.000000 0.150136 -0.988665
vn -0.866185 -0.011359 -0.499594
vn -0.866013 -0.021331 -0.499567
vn -0.863923 -0.043032 -0.501782
vn -0.863864 -0.047988 -0.501433
vn -0.865591 0.047961 -0.498450
vn -0.865408 0.043510 -0.499175
vn -0.867705 0.096986 -0.487526
vn -0.870180 0.091748 -0.484118
vn -0.879837 0.078038 -0.468825
vn -0.879495 0.082490 -0.468704
vn -0.872091 0.016863 -0.489053
vn -0.870986 0.009112 -0.491224
vn -0.864825 -0.072570 -0.496801
vn -0.864890 -0.075811 -0.496204
vn -0.864447 -0.022912 -0.502201
vn -0.865195 -0.043475 -0.499547
vn -0.854625 0.083616 -0.512470
vn -0.854625 0.083616 -0.512470
vn -0.865725 0.036365 0.499197
vn -0.865414 0.046066 0.498935
vn -0.863627 0.068352 0.499477
vn -0.863429 0.073265 0.499121
vn -0.865360 -0.019538 0.500770
vn -0.865318 -0.015263 0.500991
vn -0.864888 -0.065069 0.497730
vn -0.864894 -0.064944 0.497735
vn -0.865672 -0.049785 0.498130
vn -0.865669 -0.049786 0.498134
vn -0.864930 0.013777 0.501703
vn -0.864633 0.020656 0.501979
vn -0.863595 0.096138 0.494936
vn -0.863687 0.099099 0.494190
vn -0.865052 0.044451 0.499709
vn -0.865478 0.065175 0.496689
vn -0.856746 -0.063288 0.511841
vn -0.856746 -0.063288 0.511841
vn 0.000000 0.070899 0.997484
vn 0.000000 0.070899 0.997484
vn 0.000000 0.127299 0.991865
vn 0.000000 0.127299 0.991865
vn 0.000000 -0.050434 0.998727
vn 0.000000 -0.050434 0.998727
vn 0.000000 -0.146716 0.989179
vn 0.000000 -0.146716 0.989179
vn 0.000000 -0.116571 0.993182
vn 0.000000 -0.116571 0.993182
vn 0.000000 0.019674 0.999806
vn 0.000000 0.019674 0.999806
vn 0.000000 0.181404 0.983409
vn 0.000000 0.181404 0.983409
vn 0.000000 0.097139 0.995271
vn 0.000000 0.097139 0.995271
vn 0.000000 -0.133829 0.991005
vn 0.000000 -0.133829 0.991005
vn 0.865414 0.046066 0.498935
vn 0.865725 0.036365 0.499197
vn 0.863429 0.073265 0.499122
vn 0.863627 0.068352 0.499477
vn 0.865597 -0.015793 0.500491
vn 0.865671 -0.020065 0.500211
vn 0.862137 -0.066450 0.502299
vn 0.864368 -0.067931 0.498250
vn 0.854556 -0.050774 0.516871
vn 0.854150 -0.053846 0.517231
vn 0.860558 0.020826 0.508926
vn 0.860171 0.013807 0.509819
vn 0.863687 0.099099 0.494190
vn 0.863595 0.096138 0.494936
vn 0.865478 0.065175 0.496689
vn 0.865052 0.044451 0.499709
vn 0.856746 -0.063288 0.511841
vn 0.856746 -0.063288 0.511841
vn 0.866013 -0.021331 -0.499566
vn 0.866185 -0.011359 -0.499594
vn 0.863865 -0.047988 -0.501433
vn 0.863923 -0.043032 -0.501782
vn 0.863964 0.044100 -0.501619
vn 0.863966 0.048604 -0.501199
vn 0.874305 0.069426 -0.480387
vn 0.908458 0.049841 -0.414993
vn 0.933879 0.119083 -0.337177
vn 0.890418 0.123036 -0.438198
vn 0.868640 0.008699 -0.495367
vn 0.869327 0.016060 -0.493977
vn 0.864890 -0.075811 -0.496204
vn 0.864825 -0.072570 -0.496801
vn 0.865195 -0.043475 -0.499547
vn 0.864448 -0.022912 -0.502201
vn 0.854625 0.083616 -0.512469
vn 0.854625 0.083616 -0.512469
vn -0.847622 0.201502 -0.490849
vn -0.832788 -0.001038 -0.553592
vn -0.832046 -0.005448 -0.554680
vn -0.847622 0.201502 -0.490850
vn 0.831111 0.060090 0.552851
vn 0.767068 0.262352 0.585473
vn 0.767068 0.262352 0.585473
vn 0.832148 0.055338 0.551786
vn -0.663569 -0.189126 -0.723815
vn -0.433076 -0.529591 -0.729369
vn -0.758444 0.145317 -0.635331
vn -0.471890 0.647584 -0.598293
vn 0.713662 -0.695075 0.086938
vn 0.851125 -0.404080 0.335119
vn 0.854703 -0.025014 0.518515
vn 0.822703 0.553585 0.129241
vn -0.398941 -0.510552 -0.761697
vn -0.362359 -0.483477 -0.796835
vn -0.294780 -0.443961 -0.846170
vn -0.277145 -0.448326 -0.849820
vn -0.260894 -0.452240 -0.852885
vn -0.259300 -0.452690 -0.853132
vn -0.258629 -0.437669 -0.861137
vn -0.259153 -0.408997 -0.874964
vn -0.261393 -0.345881 -0.901133
vn -0.263457 -0.261819 -0.928462
vn -0.269413 -0.168007 -0.948256
vn -0.279163 -0.061397 -0.958279
vn -0.290822 0.008453 -0.956740
vn -0.321096 0.107847 -0.940886
vn -0.330680 0.141722 -0.933041
vn -0.330680 0.141722 -0.933041
vn -0.794876 0.088620 -0.600266
vn -0.794078 0.088418 -0.601350
vn -0.802460 0.089036 -0.590026
vn -0.802491 0.088996 -0.589989
vn -0.803913 0.087231 -0.588315
vn -0.803927 0.087214 -0.588299
vn -0.806646 0.083167 -0.585155
vn -0.806616 0.083213 -0.585189
vn -0.815609 0.066413 -0.574780
vn -0.814867 0.067922 -0.575655
vn -0.826373 0.033445 -0.562130
vn -0.825769 0.036232 -0.562844
vn -0.830007 -0.001159 -0.557752
vn -0.830052 0.000452 -0.557686
vn -0.643872 0.763988 -0.041860
vn -0.643872 0.763988 -0.041860
vn -0.725432 0.684479 0.072358
vn -0.673201 0.739451 -0.003536
vn -0.796927 0.598497 0.081906
vn -0.777276 0.618823 0.113581
vn -0.812363 0.580236 0.058244
vn -0.810391 0.582833 0.059767
vn -0.828327 0.548726 0.113020
vn -0.818096 0.570419 0.073091
vn -0.861065 0.406618 0.305334
vn -0.841986 0.512112 0.169711
vn -0.860590 0.114879 0.496174
vn -0.866118 0.321247 0.382936
vn -0.809014 -0.187051 0.557233
vn -0.848264 0.029088 0.528774
vn -0.792289 -0.241847 0.560168
vn -0.792289 -0.241847 0.560168
vn 0.780798 -0.623756 0.035822
vn 0.740241 -0.668727 0.069623
vn 0.828415 -0.557769 -0.051207
vn 0.831380 -0.554946 -0.029028
vn 0.824892 -0.560428 -0.073992
vn 0.825255 -0.560167 -0.071882
vn 0.856744 -0.509666 -0.078925
vn 0.836215 -0.543014 -0.076684
vn 0.939503 -0.332092 -0.083956
vn 0.896246 -0.435950 -0.081793
vn 0.994313 -0.080831 -0.069340
vn 0.972784 -0.217373 -0.080249
vn 0.990682 0.135505 -0.013671
vn 0.998496 0.006884 -0.054386
vn 0.983856 0.178961 0.000322
vn 0.983856 0.178961 0.000322
vn 0.293147 0.666502 0.685448
vn 0.293147 0.666502 0.685448
vn 0.279899 0.641450 0.714282
vn 0.247639 0.579746 0.776253
vn 0.237672 0.505181 0.829641
vn 0.266846 0.482350 0.834345
vn 0.286449 0.465684 0.837309
vn 0.287795 0.463189 0.838230
vn 0.277385 0.456045 0.845624
vn 0.247455 0.440782 0.862831
vn 0.207607 0.416336 0.885191
vn 0.094675 0.336637 0.936863
vn 0.032096 0.276225 0.960557
vn -0.077463 0.098907 0.992077
vn -0.111074 0.031011 0.993328
vn -0.148392 -0.165292 0.975017
vn -0.156855 -0.213714 0.964221
vn -0.156855 -0.213714 0.964221
vn 0.808762 -0.092389 0.580835
vn 0.809865 -0.091794 0.579390
vn 0.818917 -0.084339 0.567681
vn 0.818912 -0.084424 0.567676
vn 0.818970 -0.081728 0.567987
vn 0.818974 -0.081725 0.567982
vn 0.820979 -0.077825 0.565630
vn 0.820998 -0.077789 0.565607
vn 0.828483 -0.060277 0.556761
vn 0.829128 -0.058600 0.555979
vn 0.837354 -0.024500 0.546112
vn 0.837725 -0.021538 0.545667
vn 0.838471 0.015454 0.544727
vn 0.838274 0.017145 0.544980
s 1
g Trunk
usemtl rampShader1SG
f 1/7/1 2/8/2 8/15/3 7/14/4
s 2
f 2/8/5 3/9/6 9/16/7 8/15/8
s 3
f 3/9/9 4/10/10 10/17/11 9/16/12
s 4
f 4/10/13 5/11/14 11/18/15 10/17/16
s 5
f 5/11/17 6/12/18 12/19/19 11/18/20
s 6
f 6/12/21 1/13/22 7/20/23 12/19/24
s 7
f 2/2/25 1/1/26 13/27/27
f 3/3/28 2/2/25 13/27/27
f 4/4/29 3/3/28 13/27/27
f 5/5/30 4/4/29 13/27/27
f 6/6/31 5/5/30 13/27/27
f 1/1/26 6/6/31 13/27/27
s 8
f 21/36/32 29/44/33 30/28/34
f 29/44/33 38/52/35 30/28/34
f 38/52/35 46/60/36 30/28/34
f 46/60/36 54/68/37 30/28/34
f 54/68/37 62/76/38 30/28/34
f 62/76/38 21/36/32 30/28/34
s 1
f 7/25/4 8/24/3 22/37/39 14/29/40
f 14/29/40 22/37/39 23/38/41 15/30/42
f 15/30/42 23/38/41 24/39/43 16/31/44
f 16/31/44 24/39/43 25/40/45 17/32/46
f 63/77/47 64/78/48 26/41/49 18/33/50
f 18/33/50 26/41/49 27/42/51 19/34/52
f 19/34/52 27/42/51 28/43/53 20/35/54
f 20/35/54 28/43/53 29/44/55 21/36/56
s 2
f 8/24/8 9/23/7 31/45/57 22/37/58
f 22/37/58 31/45/57 32/46/59 23/38/60
f 23/38/60 32/46/59 33/47/61 24/39/62
f 24/39/62 33/47/61 34/48/63 25/40/64
f 64/78/65 65/79/66 35/49/67 26/41/68
f 26/41/68 35/49/67 36/50/69 27/42/70
f 27/42/70 36/50/69 37/51/71 28/43/72
f 28/43/72 37/51/71 38/52/73 29/44/74
s 3
f 9/23/12 10/22/11 39/53/75 31/45/76
f 31/45/76 39/53/75 40/54/77 32/46/78
f 32/46/78 40/54/77 41/55/79 33/47/80
f 33/47/80 41/55/79 42/56/81 34/48/82
f 65/79/83 66/80/84 43/57/85 35/49/86
f 35/49/86 43/57/85 44/58/87 36/50/88
f 36/50/88 44/58/87 45/59/89 37/51/90
f 37/51/90 45/59/89 46/60/91 38/52/92
s 4
f 10/22/16 11/21/15 47/61/93 39/53/94
f 39/53/94 47/61/93 48/62/95 40/54/96
f 40/54/96 48/62/95 49/63/97 41/55/98
f 41/55/98 49/63/97 50/64/99 42/56/100
f 66/80/101 67/81/102 51/65/103 43/57/104
f 43/57/104 51/65/103 52/66/105 44/58/106
f 44/58/106 52/66/105 53/67/107 45/59/108
f 45/59/108 53/67/107 54/68/109 46/60/110
s 5
f 11/21/20 12/26/19 55/69/111 47/61/112
f 47/61/112 55/69/111 56/70/113 48/62/114
f 48/62/114 56/70/113 57/71/115 49/63/116
f 49/63/116 57/71/115 58/72/117 50/64/118
f 67/81/119 68/82/120 59/73/121 51/65/122
f 51/65/122 59/73/121 60/74/123 52/66/124
f 52/66/124 60/74/123 61/75/125 53/67/126
f 53/67/126 61/75/125 62/76/127 54/68/128
s 6
f 12/26/24 7/25/23 14/29/129 55/69/130
f 55/69/130 14/29/129 15/30/131 56/70/132
f 56/70/132 15/30/131 16/31/133 57/71/134
f 57/71/134 16/31/133 17/32/135 58/72/136
f 68/82/137 63/77/138 18/33/139 59/73/140
f 59/73/140 18/33/139 19/34/141 60/74/142
f 60/74/142 19/34/141 20/35/143 61/75/144
f 61/75/144 20/35/143 21/36/145 62/76/146
s 1
f 82/96/147 90/104/148 98/112/149 106/120/150
s 2
f 25/40/64 34/48/63 65/79/66 64/78/65
s 3
f 34/48/82 42/56/81 66/80/84 65/79/83
s 4
f 42/56/100 50/64/99 67/81/102 66/80/101
s 5
f 50/64/118 58/72/117 68/82/120 67/81/119
s 6
f 114/128/151 82/96/152 106/120/153 122/136/154
s 1
f 17/32/46 25/40/45 70/84/155 69/83/156
f 25/40/45 64/78/48 71/85/157 70/84/155
f 64/78/48 63/77/47 72/86/158 71/85/157
s 6
f 58/72/136 17/32/135 69/83/159 73/87/160
f 63/77/138 68/82/137 74/88/161 72/86/162
f 68/82/137 58/72/136 73/87/160 74/88/161
s 1
f 69/83/156 70/84/155 83/97/163 75/89/164
f 75/89/164 83/97/163 84/98/165 76/90/166
f 76/90/166 84/98/165 85/99/167 77/91/168
f 77/91/168 85/99/167 86/100/169 78/92/170
f 78/92/170 86/100/169 87/101/171 79/93/172
f 79/93/172 87/101/171 88/102/173 80/94/174
f 80/94/174 88/102/173 89/103/175 81/95/176
f 81/95/176 89/103/175 90/104/177 82/96/178
f 70/84/155 71/85/157 91/105/179 83/97/180
f 83/97/180 91/105/179 92/106/181 84/98/182
f 84/98/182 92/106/181 93/107/183 85/99/184
f 85/99/184 93/107/183 94/108/185 86/100/186
f 86/100/186 94/108/185 95/109/187 87/101/188
f 87/101/188 95/109/187 96/110/189 88/102/190
f 88/102/190 96/110/189 97/111/191 89/103/192
f 89/103/192 97/111/191 98/112/149 90/104/148
s 13
f 71/85/193 72/86/194 99/113/195 91/105/196
f 91/105/196 99/113/195 100/114/197 92/106/198
f 92/106/198 100/114/197 101/115/199 93/107/200
f 93/107/200 101/115/199 102/116/201 94/108/202
f 94/108/202 102/116/201 103/117/203 95/109/204
f 95/109/204 103/117/203 104/118/205 96/110/206
f 96/110/206 104/118/205 105/119/207 97/111/208
f 97/111/208 105/119/207 106/120/209 98/112/210
s 6
f 73/87/160 69/83/159 75/89/211 107/121/212
f 107/121/212 75/89/211 76/90/213 108/122/214
f 108/122/214 76/90/213 77/91/215 109/123/216
f 109/123/216 77/91/215 78/92/217 110/124/218
f 110/124/218 78/92/217 79/93/219 111/125/220
f 111/125/220 79/93/219 80/94/221 112/126/222
f 112/126/222 80/94/221 81/95/223 113/127/224
f 113/127/224 81/95/223 82/96/225 114/128/226
s 14
f 72/86/227 74/88/228 115/129/229 99/113/230
f 99/113/230 115/129/229 116/130/231 100/114/232
f 100/114/232 116/130/231 117/131/233 101/115/234
f 101/115/234 117/131/233 118/132/235 102/116/236
f 102/116/236 118/132/235 119/133/237 103/117/238
f 103/117/238 119/133/237 120/134/239 104/118/240
f 104/118/240 120/134/239 121/135/241 105/119/242
f 105/119/242 121/135/241 122/136/243 106/120/244
s 6
f 74/88/161 73/87/160 107/121/245 115/129/246
f 115/129/246 107/121/245 108/122/247 116/130/248
f 116/130/248 108/122/247 109/123/249 117/131/250
f 117/131/250 109/123/249 110/124/251 118/132/252
f 118/132/252 110/124/251 111/125/253 119/133/254
f 119/133/254 111/125/253 112/126/255 120/134/256
f 120/134/256 112/126/255 113/127/257 121/135/258
f 121/135/258 113/127/257 114/128/151 122/136/154
